<?xml version="1.0" standalone="no"?>
<!DOCTYPE svg PUBLIC "-//W3C//DTD SVG 20010904//EN"
 "http://www.w3.org/TR/2001/REC-SVG-20010904/DTD/svg10.dtd">
<svg version="1.0" xmlns="http://www.w3.org/2000/svg"
 width="48.000000pt" height="48.000000pt" viewBox="0 0 48.000000 48.000000"
 preserveAspectRatio="xMidYMid meet">

<g transform="translate(0.000000,48.000000) scale(0.100000,-0.100000)"
fill="#adadad" stroke="none">
<path d="M153 375 c-46 -36 -85 -75 -88 -88 -3 -12 -5 -69 -3 -127 l3 -105 70
0 70 0 3 63 c3 61 3 62 32 62 29 0 29 -1 32 -63 l3 -62 70 0 70 0 3 105 c2 58
0 115 -3 128 -5 19 -158 152 -175 152 -3 0 -42 -29 -87 -65z m165 -31 l72 -55
0 -105 0 -104 -45 0 -45 0 0 53 c0 62 -11 77 -60 77 -49 0 -60 -15 -60 -77 l0
-53 -45 0 -45 0 0 104 0 105 72 55 c39 31 74 56 78 56 4 0 39 -25 78 -56z"/>
</g>
</svg>
