<?xml version="1.0" standalone="no"?>
<!DOCTYPE svg PUBLIC "-//W3C//DTD SVG 20010904//EN"
 "http://www.w3.org/TR/2001/REC-SVG-20010904/DTD/svg10.dtd">
<svg version="1.0" xmlns="http://www.w3.org/2000/svg"
 width="48.000000pt" height="48.000000pt" viewBox="0 0 48.000000 48.000000"
 preserveAspectRatio="xMidYMid meet">

<g transform="translate(0.000000,48.000000) scale(0.100000,-0.100000)"
fill="#000000" stroke="none">
<path d="M177 430 c-38 -12 -97 -58 -97 -76 0 -21 24 -17 46 7 93 105 284 23
284 -121 0 -144 -191 -226 -284 -121 -11 11 -25 21 -33 21 -27 0 -8 -34 35
-65 38 -26 52 -30 111 -30 56 0 74 4 108 27 62 41 88 90 88 168 0 77 -26 127
-85 166 -42 28 -126 40 -173 24z"/>
<path d="M70 275 l-34 -35 34 -35 c32 -33 60 -45 60 -26 0 5 -7 14 -15 21 -30
25 -13 30 90 30 58 0 105 4 105 9 0 16 -30 21 -122 21 -88 0 -90 1 -75 18 42
46 1 43 -43 -3z"/>
</g>
</svg>
