<?xml version="1.0" standalone="no"?>
<!DOCTYPE svg PUBLIC "-//W3C//DTD SVG 20010904//EN"
 "http://www.w3.org/TR/2001/REC-SVG-20010904/DTD/svg10.dtd">
<svg version="1.0" xmlns="http://www.w3.org/2000/svg"
 width="32.000000pt" height="32.000000pt" viewBox="0 0 32.000000 32.000000"
 preserveAspectRatio="xMidYMid meet">

<g transform="translate(0.000000,32.000000) scale(0.100000,-0.100000)"
fill="#000000" stroke="none">
<path d="M100 255 c-8 -21 -4 -37 20 -83 l29 -57 1 63 c0 91 -28 134 -50 77z"/>
<path d="M180 261 c-5 -11 -10 -48 -10 -83 l1 -63 29 57 c24 46 28 62 20 83
-11 30 -26 32 -40 6z"/>
<path d="M44 216 c-9 -38 3 -61 46 -85 22 -12 40 -20 40 -17 0 8 -70 126 -75
126 -3 0 -7 -11 -11 -24z"/>
<path d="M227 182 c-20 -35 -37 -65 -37 -68 0 -3 18 5 40 17 44 25 59 57 43
92 -9 19 -13 16 -46 -41z"/>
<path d="M20 146 c0 -8 8 -24 18 -36 13 -16 26 -21 54 -18 l37 3 -55 32 c-36
21 -54 28 -54 19z"/>
<path d="M240 123 l-55 -33 42 0 c34 0 46 5 59 25 27 41 12 43 -46 8z"/>
<path d="M60 65 c16 -19 31 -19 56 0 18 13 16 14 -25 15 -37 0 -42 -2 -31 -15z"/>
<path d="M204 65 c25 -19 40 -19 56 0 11 13 6 15 -31 15 -41 -1 -43 -2 -25
-15z"/>
</g>
</svg>
