<?xml version="1.0" standalone="no"?>
<!DOCTYPE svg PUBLIC "-//W3C//DTD SVG 20010904//EN"
 "http://www.w3.org/TR/2001/REC-SVG-20010904/DTD/svg10.dtd">
<svg version="1.0" xmlns="http://www.w3.org/2000/svg"
 width="64.000000pt" height="64.000000pt" viewBox="0 0 64.000000 64.000000"
 preserveAspectRatio="xMidYMid meet">

<g transform="translate(0.000000,64.000000) scale(0.100000,-0.100000)"
fill="#adadad" stroke="none">
<path d="M65 567 c-3 -7 -4 -123 -3 -257 l3 -245 255 0 255 0 0 255 0 255
-253 3 c-198 2 -254 0 -257 -11z m495 -247 l0 -240 -240 0 -240 0 0 240 0 240
240 0 240 0 0 -240z"/>
<path d="M124 486 c-3 -7 -4 -33 -2 -57 l3 -44 55 0 c53 0 55 1 58 28 2 15 -1
27 -7 27 -6 0 -11 -9 -11 -20 0 -17 -7 -20 -40 -20 l-40 0 0 40 c0 39 1 40 35
40 19 0 35 5 35 10 0 16 -80 12 -86 -4z"/>
<path d="M210 465 c-15 -16 -30 -23 -42 -19 -22 7 -24 -9 -3 -26 13 -11 21 -8
50 20 19 19 35 38 35 42 0 15 -16 8 -40 -17z"/>
<path d="M280 470 c0 -6 47 -10 120 -10 73 0 120 4 120 10 0 6 -47 10 -120 10
-73 0 -120 -4 -120 -10z"/>
<path d="M280 430 c0 -6 37 -10 90 -10 53 0 90 4 90 10 0 6 -37 10 -90 10 -53
0 -90 -4 -90 -10z"/>
<path d="M124 306 c-3 -7 -4 -33 -2 -57 l3 -44 55 0 c53 0 55 1 58 28 2 15 -1
27 -7 27 -6 0 -11 -9 -11 -20 0 -17 -7 -20 -40 -20 l-40 0 0 40 c0 39 1 40 35
40 19 0 35 5 35 10 0 16 -80 12 -86 -4z"/>
<path d="M210 285 c-15 -16 -30 -23 -42 -19 -22 7 -24 -9 -3 -26 13 -11 21 -8
50 20 19 19 35 38 35 42 0 15 -16 8 -40 -17z"/>
<path d="M280 290 c0 -6 27 -10 60 -10 33 0 60 4 60 10 0 6 -27 10 -60 10 -33
0 -60 -4 -60 -10z"/>
<path d="M420 290 c0 -5 23 -10 50 -10 28 0 50 5 50 10 0 6 -22 10 -50 10 -27
0 -50 -4 -50 -10z"/>
<path d="M280 250 c0 -5 23 -10 50 -10 28 0 50 5 50 10 0 6 -22 10 -50 10 -27
0 -50 -4 -50 -10z"/>
<path d="M110 120 c0 -11 5 -20 10 -20 6 0 10 9 10 20 0 11 -4 20 -10 20 -5 0
-10 -9 -10 -20z"/>
<path d="M160 120 c0 -11 5 -20 10 -20 6 0 10 9 10 20 0 11 -4 20 -10 20 -5 0
-10 -9 -10 -20z"/>
<path d="M210 120 c0 -11 5 -20 10 -20 6 0 10 9 10 20 0 11 -4 20 -10 20 -5 0
-10 -9 -10 -20z"/>
<path d="M260 120 c0 -11 5 -20 10 -20 6 0 10 9 10 20 0 11 -4 20 -10 20 -5 0
-10 -9 -10 -20z"/>
<path d="M310 120 c0 -11 5 -20 10 -20 6 0 10 9 10 20 0 11 -4 20 -10 20 -5 0
-10 -9 -10 -20z"/>
<path d="M360 120 c0 -11 5 -20 10 -20 6 0 10 9 10 20 0 11 -4 20 -10 20 -5 0
-10 -9 -10 -20z"/>
<path d="M410 120 c0 -11 5 -20 10 -20 6 0 10 9 10 20 0 11 -4 20 -10 20 -5 0
-10 -9 -10 -20z"/>
<path d="M460 120 c0 -11 5 -20 10 -20 6 0 10 9 10 20 0 11 -4 20 -10 20 -5 0
-10 -9 -10 -20z"/>
<path d="M510 120 c0 -11 5 -20 10 -20 6 0 10 9 10 20 0 11 -4 20 -10 20 -5 0
-10 -9 -10 -20z"/>
</g>
</svg>
