<?xml version="1.0" standalone="no"?>
<!DOCTYPE svg PUBLIC "-//W3C//DTD SVG 20010904//EN"
 "http://www.w3.org/TR/2001/REC-SVG-20010904/DTD/svg10.dtd">
<svg version="1.0" xmlns="http://www.w3.org/2000/svg"
 width="32.000000pt" height="32.000000pt" viewBox="0 0 32.000000 32.000000"
 preserveAspectRatio="xMidYMid meet">

<g transform="translate(0.000000,32.000000) scale(0.100000,-0.100000)"
fill="#adadad" stroke="none">
<path d="M64 256 c-10 -26 4 -48 28 -44 33 4 33 52 0 56 -13 2 -25 -3 -28 -12z
m36 -16 c0 -5 -4 -10 -10 -10 -5 0 -10 5 -10 10 0 6 5 10 10 10 6 0 10 -4 10
-10z"/>
<path d="M134 256 c-10 -26 4 -48 28 -44 17 2 23 10 23 28 0 18 -6 26 -23 28
-13 2 -25 -3 -28 -12z m36 -16 c0 -5 -4 -10 -10 -10 -5 0 -10 5 -10 10 0 6 5
10 10 10 6 0 10 -4 10 -10z"/>
<path d="M204 256 c-10 -26 4 -48 28 -44 17 2 23 10 23 28 0 18 -6 26 -23 28
-13 2 -25 -3 -28 -12z m36 -16 c0 -5 -4 -10 -10 -10 -5 0 -10 5 -10 10 0 6 5
10 10 10 6 0 10 -4 10 -10z"/>
<path d="M52 188 c-14 -14 -16 -78 -2 -78 6 0 10 -13 10 -30 0 -16 5 -30 10
-30 6 0 10 15 10 34 0 19 -4 38 -10 41 -17 11 -11 42 13 58 21 15 21 16 2 16
-12 1 -26 -4 -33 -11z"/>
<path d="M122 187 c-16 -19 -26 -67 -14 -67 6 0 13 14 17 30 5 23 12 30 31 30
29 0 42 -25 26 -51 -15 -23 -16 -79 -2 -79 6 0 10 14 10 30 0 17 5 30 10 30
14 0 12 64 -2 78 -16 16 -63 15 -76 -1z"/>
<path d="M220 191 c0 -5 9 -11 20 -14 21 -5 28 -41 10 -52 -5 -3 -10 -22 -10
-41 0 -19 5 -34 10 -34 6 0 10 14 10 30 0 17 5 30 10 30 14 0 12 64 -2 78 -14
14 -48 16 -48 3z"/>
<path d="M100 90 c0 -11 5 -20 10 -20 6 0 10 9 10 20 0 11 -4 20 -10 20 -5 0
-10 -9 -10 -20z"/>
<path d="M130 80 c0 -16 5 -30 10 -30 6 0 10 14 10 30 0 17 -4 30 -10 30 -5 0
-10 -13 -10 -30z"/>
</g>
</svg>
