<?xml version="1.0" standalone="no"?>
<!DOCTYPE svg PUBLIC "-//W3C//DTD SVG 20010904//EN"
 "http://www.w3.org/TR/2001/REC-SVG-20010904/DTD/svg10.dtd">
<svg version="1.0" xmlns="http://www.w3.org/2000/svg"
 width="512.000000pt" height="512.000000pt" viewBox="0 0 512.000000 512.000000"
 preserveAspectRatio="xMidYMid meet">

<g transform="translate(0.000000,512.000000) scale(0.100000,-0.100000)"
fill="#000000" stroke="none">
<path d="M622 4884 c-174 -46 -301 -168 -355 -339 l-22 -70 0 -1975 0 -1975
23 -57 c46 -114 125 -188 240 -227 60 -21 79 -21 917 -21 l855 0 0 188 c0 177
1 190 20 207 26 23 74 23 100 0 18 -16 20 -33 22 -204 l3 -186 128 -3 127 -3
0 94 c0 80 3 98 21 121 28 36 80 36 108 0 18 -23 21 -41 21 -120 l0 -94 130 0
130 0 0 190 c0 177 1 191 20 210 27 27 71 26 98 -3 21 -22 22 -32 22 -210 l0
-187 129 0 129 0 4 106 c3 97 5 107 27 125 32 26 67 24 96 -6 23 -22 25 -32
25 -120 l0 -95 130 0 130 0 0 188 c0 177 1 190 20 207 25 23 76 24 98 1 14
-14 18 -45 22 -204 l5 -187 128 -3 127 -3 0 94 c0 80 3 98 21 121 28 36 80 36
108 0 18 -23 21 -41 21 -120 l0 -94 63 0 c34 1 106 4 159 9 82 6 102 12 131
34 69 52 70 63 68 426 -2 297 -4 327 -21 362 -11 20 -31 47 -46 58 -53 41 -87
44 -516 36 l-408 -7 0 930 0 930 293 4 292 3 62 29 c73 33 144 103 176 174 22
46 22 55 25 632 3 636 2 660 -50 770 -38 79 -140 186 -215 224 -117 59 -16 56
-1983 55 -1530 0 -1813 -2 -1858 -15z m3218 -173 c-47 -60 -90 -163 -100 -244
-5 -42 -10 -747 -10 -1693 l0 -1621 -870 -6 c-706 -6 -877 -10 -903 -21 -39
-16 -82 -61 -96 -99 -7 -18 -11 -145 -11 -343 l0 -314 -654 2 -654 3 -43 30
c-51 36 -85 82 -99 136 -7 24 -9 698 -8 1991 l3 1953 29 63 c36 77 114 152
189 181 51 20 73 20 1655 20 l1604 1 -32 -39z"/>
<path d="M1895 4466 c-44 -20 -76 -60 -90 -111 -11 -46 -12 -47 -93 -81 l-82
-36 -30 22 c-35 25 -85 35 -132 26 -41 -7 -162 -114 -207 -183 -39 -59 -42
-119 -7 -180 l24 -42 -32 -77 c-31 -73 -35 -78 -74 -90 -105 -31 -131 -78
-132 -237 0 -158 29 -215 125 -242 l51 -15 32 -79 32 -78 -25 -44 c-27 -47
-31 -91 -14 -136 12 -33 161 -188 201 -209 41 -21 107 -17 155 10 l41 24 80
-32 c77 -29 81 -33 87 -67 18 -104 78 -138 242 -139 61 0 124 5 140 11 48 18
91 67 103 120 9 35 18 50 33 55 12 3 47 17 79 31 l56 25 44 -26 c90 -53 158
-28 280 102 95 101 108 168 49 250 l-20 29 34 79 c34 77 35 79 85 95 101 33
120 70 120 240 0 168 -24 212 -131 239 -43 11 -45 13 -76 92 l-32 81 21 30
c28 39 36 123 15 163 -8 16 -53 66 -99 111 -114 111 -164 123 -264 64 l-34
-20 -62 28 c-35 16 -70 31 -80 34 -9 3 -19 22 -23 47 -8 49 -47 98 -92 116
-43 19 -257 18 -298 0z m317 -633 c81 -38 153 -110 192 -193 28 -59 31 -74 31
-165 0 -88 -3 -107 -27 -158 -77 -163 -255 -259 -424 -228 -170 31 -291 151
-326 325 -20 103 18 235 94 321 113 130 305 170 460 98z"/>
<path d="M797 2203 c-9 -2 -24 -18 -33 -35 -19 -37 -5 -80 32 -97 18 -8 363
-11 1260 -11 l1235 0 24 25 c14 13 25 36 25 50 0 14 -11 37 -25 50 l-24 25
-1238 -1 c-681 -1 -1246 -3 -1256 -6z"/>
<path d="M775 1800 c-10 -11 -18 -34 -18 -50 0 -16 8 -39 18 -50 18 -20 29
-20 901 -20 l883 0 20 26 c26 34 26 54 0 88 l-20 26 -883 0 c-872 0 -883 0
-901 -20z"/>
<path d="M793 1428 c-35 -17 -48 -60 -29 -96 8 -16 23 -32 31 -36 9 -3 286 -6
614 -6 590 0 599 0 625 21 36 28 36 80 0 108 -26 21 -34 21 -623 20 -396 0
-603 -4 -618 -11z"/>
<path d="M779 1032 c-28 -23 -30 -73 -4 -102 17 -19 30 -20 342 -20 310 0 324
1 343 20 11 11 20 33 20 50 0 17 -9 39 -20 50 -19 19 -33 20 -339 20 -295 0
-320 -1 -342 -18z"/>
</g>
</svg>
