<?xml version="1.0" standalone="no"?>
<!DOCTYPE svg PUBLIC "-//W3C//DTD SVG 20010904//EN"
 "http://www.w3.org/TR/2001/REC-SVG-20010904/DTD/svg10.dtd">
<svg version="1.0" xmlns="http://www.w3.org/2000/svg"
 width="512.000000pt" height="512.000000pt" viewBox="0 0 512.000000 512.000000"
 preserveAspectRatio="xMidYMid meet">

<g transform="translate(0.000000,512.000000) scale(0.100000,-0.100000)"
fill="#000000" stroke="none">
<path d="M321 4091 c-11 -7 -13 -90 -13 -457 0 -452 9 -734 38 -1203 l16 -254
-66 -66 -67 -66 -29 35 c-37 45 -52 31 -21 -22 l23 -40 -31 -37 c-17 -20 -53
-69 -80 -109 -49 -70 -56 -102 -24 -102 9 0 78 64 154 142 76 78 141 140 144
137 7 -8 37 -388 32 -403 -3 -8 -65 -17 -186 -25 -109 -8 -184 -18 -190 -25
-23 -27 8 -35 194 -46 105 -7 191 -13 192 -14 2 -1 12 -110 24 -242 22 -247
29 -274 69 -274 40 0 43 21 31 208 -6 97 -14 207 -18 245 l-6 67 259 0 c272 0
599 14 1329 55 831 46 1369 63 2270 70 363 3 679 8 702 11 36 4 44 10 49 30
12 48 -6 53 -211 65 -211 13 -1185 6 -1490 -10 -99 -5 -252 -13 -341 -17
l-161 -7 -6 60 c-4 33 -9 66 -12 75 -8 21 127 211 410 573 307 394 358 465
550 770 86 138 162 258 169 268 6 9 23 17 37 17 14 0 40 5 58 11 29 10 35 8
84 -29 87 -68 336 -288 436 -385 l94 -92 -36 -66 c-33 -59 -35 -68 -22 -85 11
-16 17 -17 33 -7 15 9 30 6 78 -17 80 -38 249 -100 272 -100 10 0 27 9 36 19
16 18 15 25 -23 137 -24 71 -45 157 -52 214 -19 155 -44 163 -159 52 l-70 -67
-36 52 c-53 77 -198 211 -376 348 l-156 119 4 56 c2 30 7 80 10 111 5 53 4 57
-26 82 -26 22 -42 27 -86 27 -67 0 -113 -22 -172 -83 -38 -38 -44 -51 -49
-101 -5 -47 -2 -66 17 -106 l23 -48 -134 -214 c-121 -195 -360 -560 -411 -629
l-21 -28 -34 56 c-44 74 -115 162 -130 163 -31 1 -19 -30 55 -141 l80 -119
-73 -98 c-40 -53 -130 -164 -199 -247 -70 -82 -150 -185 -179 -227 -38 -56
-56 -76 -67 -71 -8 4 -31 7 -51 7 l-35 0 -49 191 c-69 274 -128 474 -175 599
-39 105 -40 109 -23 128 12 14 18 36 18 72 0 42 -6 60 -29 90 -33 44 -86 70
-130 63 -17 -2 -41 0 -53 6 -49 22 -103 -48 -107 -136 l-1 -52 -174 -140
c-107 -87 -181 -141 -195 -141 -14 1 -22 -6 -24 -19 -2 -12 -96 -94 -245 -211
-200 -158 -244 -188 -251 -175 -5 9 -11 18 -13 20 -2 3 -29 6 -60 8 -32 2 -61
7 -64 11 -4 4 -28 54 -54 111 -46 103 -46 104 -29 139 43 91 -48 245 -154 259
-57 8 -83 -15 -133 -113 -40 -79 -42 -88 -32 -125 9 -36 8 -40 -18 -61 -15
-13 -82 -72 -149 -131 -68 -60 -126 -105 -130 -100 -8 9 -53 827 -76 1388 -8
209 -20 390 -25 403 -9 23 -25 28 -48 13z m1955 -1247 c25 -10 53 -14 79 -10
l41 5 37 -98 c48 -131 94 -287 165 -566 l59 -230 -29 -39 c-34 -47 -36 -85 -6
-137 12 -21 20 -40 17 -42 -4 -4 -1535 -58 -1613 -57 -37 0 -38 1 -20 14 34
26 4 34 -109 28 -116 -5 -135 -18 -56 -38 41 -10 35 -11 -91 -18 -74 -3 -161
-9 -192 -12 l-58 -6 0 60 0 60 41 -19 c45 -22 104 -22 104 0 0 8 -22 21 -52
31 -102 33 -100 30 -108 187 -3 76 -8 150 -11 164 -4 22 7 35 78 95 46 38 130
112 188 165 l105 95 70 -4 71 -4 45 -97 c38 -81 43 -100 35 -124 -7 -19 -6
-38 3 -62 7 -19 10 -44 6 -54 -9 -29 16 -46 109 -75 64 -20 90 -24 110 -17 38
15 58 53 54 102 l-3 42 203 148 c111 82 205 149 207 149 2 0 2 -13 -1 -29 -8
-36 13 -52 33 -25 8 10 22 41 31 68 16 45 31 59 217 207 110 87 201 159 201
159 1 0 19 -7 40 -16z"/>
<path d="M1648 2223 c-8 -10 -40 -67 -72 -127 -40 -79 -53 -113 -45 -120 25
-25 159 178 159 240 0 28 -21 31 -42 7z"/>
<path d="M1295 1852 c-44 -43 -91 -85 -105 -94 -19 -12 -22 -19 -14 -28 18
-19 90 24 161 95 59 59 81 105 51 105 -7 0 -49 -35 -93 -78z"/>
<path d="M2253 3316 c-23 -13 -63 -39 -89 -57 -27 -19 -52 -37 -57 -40 -6 -4
-7 -14 -4 -23 6 -14 19 -10 94 28 109 56 138 78 130 100 -9 22 -24 20 -74 -8z"/>
<path d="M2561 3327 c-15 -19 -2 -29 69 -57 103 -41 171 -43 157 -6 -7 19 -37
31 -122 52 -33 9 -67 17 -76 20 -9 2 -21 -2 -28 -9z"/>
<path d="M2935 3207 c-6 -15 182 -217 203 -217 39 0 -15 91 -89 151 -85 68
-109 82 -114 66z"/>
<path d="M1923 3078 c-36 -40 -66 -109 -71 -165 -4 -44 -2 -53 12 -53 9 0 16
6 16 13 0 32 24 90 60 146 22 34 40 66 40 71 0 18 -36 10 -57 -12z"/>
<path d="M3465 2440 c-13 -21 137 -220 167 -220 17 0 18 23 2 48 -27 42 -146
182 -155 182 -4 0 -11 -4 -14 -10z"/>
<path d="M5063 2372 c-48 -39 -83 -139 -54 -157 11 -6 41 21 41 38 0 7 14 32
30 57 45 68 36 104 -17 62z"/>
<path d="M5 2360 c-10 -16 44 -125 76 -156 21 -20 32 -25 40 -17 8 8 -4 34
-46 97 -31 47 -58 86 -60 86 -2 0 -7 -4 -10 -10z"/>
<path d="M4760 2092 c-96 -47 -113 -59 -104 -74 23 -36 224 61 224 108 0 22
-17 17 -120 -34z"/>
<path d="M3792 2043 c2 -12 27 -25 78 -41 92 -28 145 -33 145 -12 0 17 -144
70 -193 70 -26 0 -33 -4 -30 -17z"/>
<path d="M4400 1993 c-25 -8 -76 -22 -115 -32 -46 -11 -70 -22 -70 -32 0 -11
16 -14 75 -14 92 1 190 39 190 74 0 25 -15 25 -80 4z"/>
</g>
</svg>
