<?xml version="1.0" standalone="no"?>
<!DOCTYPE svg PUBLIC "-//W3C//DTD SVG 20010904//EN"
 "http://www.w3.org/TR/2001/REC-SVG-20010904/DTD/svg10.dtd">
<svg version="1.0" xmlns="http://www.w3.org/2000/svg"
 width="512.000000pt" height="512.000000pt" viewBox="0 0 512.000000 512.000000"
 preserveAspectRatio="xMidYMid meet">

<g transform="translate(0.000000,512.000000) scale(0.100000,-0.100000)"
fill="#000000" stroke="none">
<path d="M1350 5104 c-101 -27 -188 -100 -238 -199 -27 -55 -42 -141 -42 -245
l0 -87 -150 -6 c-130 -5 -162 -10 -233 -35 -149 -51 -268 -152 -340 -289 -55
-105 -67 -170 -67 -375 l0 -178 2280 0 2280 0 0 175 c0 204 -8 251 -62 365
-32 68 -56 100 -117 160 -123 122 -233 165 -448 176 l-123 7 0 107 c0 121 -16
191 -62 262 -61 96 -143 150 -256 170 -157 27 -314 -57 -390 -207 -27 -55 -42
-141 -42 -247 l0 -88 -189 0 -188 0 -6 118 c-7 140 -24 200 -77 274 -165 231
-510 197 -634 -62 -29 -61 -31 -73 -34 -197 l-4 -133 -194 0 -194 0 0 108 c0
123 -16 192 -62 264 -56 89 -136 146 -236 167 -68 14 -104 13 -172 -5z m153
-208 c39 -16 82 -61 96 -99 7 -18 11 -164 11 -408 0 -419 0 -421 -63 -476 -84
-74 -200 -45 -248 62 -17 36 -19 73 -19 413 0 314 2 378 15 410 39 93 125 134
208 98z m1173 -21 c69 -52 69 -55 69 -485 0 -430 0 -433 -69 -485 -76 -58
-186 -34 -233 50 -22 39 -23 45 -23 431 0 388 0 391 23 435 46 88 155 113 233
54z m1097 21 c39 -16 82 -61 96 -99 7 -18 11 -164 11 -408 0 -419 0 -421 -63
-476 -84 -74 -200 -45 -248 62 -17 36 -19 73 -19 413 0 314 2 378 15 410 39
93 125 134 208 98z"/>
<path d="M282 1943 l3 -1478 21 -56 c63 -163 163 -275 312 -349 127 -63 30
-60 1942 -60 1465 0 1756 3 1812 14 131 28 264 113 344 220 61 80 81 122 105
213 18 74 19 124 19 1525 l0 1448 -175 0 -175 0 0 -1437 0 -1438 -24 -51 c-13
-28 -41 -65 -62 -82 -79 -66 34 -62 -1844 -62 -1884 0 -1771 -4 -1847 63 -20
17 -47 54 -59 82 l-24 50 0 1438 0 1437 -175 0 -175 0 2 -1477z"/>
<path d="M1810 2780 l0 -290 320 0 320 0 0 290 0 290 -320 0 -320 0 0 -290z"/>
<path d="M2670 2780 l0 -290 320 0 320 0 0 290 0 290 -320 0 -320 0 0 -290z"/>
<path d="M3530 2780 l0 -290 323 2 322 3 0 285 0 285 -322 3 -323 2 0 -290z"/>
<path d="M945 2287 c-3 -7 -4 -136 -3 -287 l3 -275 323 -3 322 -2 0 290 0 290
-320 0 c-249 0 -322 -3 -325 -13z"/>
<path d="M1810 2010 l0 -290 320 0 320 0 0 290 0 290 -320 0 -320 0 0 -290z"/>
<path d="M2670 2010 l0 -290 320 0 320 0 0 290 0 290 -320 0 -320 0 0 -290z"/>
<path d="M3530 2010 l0 -290 323 2 322 3 0 285 0 285 -322 3 -323 2 0 -290z"/>
<path d="M940 1245 l0 -285 325 0 325 0 0 285 0 285 -325 0 -325 0 0 -285z"/>
<path d="M1810 1245 l0 -285 320 0 320 0 0 285 0 285 -320 0 -320 0 0 -285z"/>
<path d="M2670 1245 l0 -285 320 0 320 0 0 285 0 285 -320 0 -320 0 0 -285z"/>
<path d="M3530 1245 l0 -285 325 0 325 0 0 285 0 285 -325 0 -325 0 0 -285z"/>
</g>
</svg>
