<?xml version="1.0" encoding="UTF-8"?>
<!DOCTYPE svg PUBLIC "-//W3C//DTD SVG 1.1//EN" "http://www.w3.org/Graphics/SVG/1.1/DTD/svg11.dtd">
<svg xmlns="http://www.w3.org/2000/svg" version="1.1" width="512px" height="512px" style="shape-rendering:geometricPrecision; text-rendering:geometricPrecision; image-rendering:optimizeQuality; fill-rule:evenodd; clip-rule:evenodd" xmlns:xlink="http://www.w3.org/1999/xlink">
<g><path style="opacity:0.989" fill="#000000" d="M 511.5,133.5 C 511.5,137.833 511.5,142.167 511.5,146.5C 510.046,149.408 508.546,152.408 507,155.5C 428.833,233.667 350.667,311.833 272.5,390C 261.167,398.667 249.833,398.667 238.5,390C 160.333,311.833 82.1667,233.667 4,155.5C 2.45406,152.408 0.95406,149.408 -0.5,146.5C -0.5,142.167 -0.5,137.833 -0.5,133.5C 2.84226,123.332 9.84226,117.165 20.5,115C 177.167,114.333 333.833,114.333 490.5,115C 501.158,117.165 508.158,123.332 511.5,133.5 Z"/></g>
</svg>
