<?xml version="1.0" encoding="UTF-8"?>
<!DOCTYPE svg PUBLIC "-//W3C//DTD SVG 1.1//EN" "http://www.w3.org/Graphics/SVG/1.1/DTD/svg11.dtd">
<svg xmlns="http://www.w3.org/2000/svg" version="1.1" width="50px" height="50px" style="shape-rendering:geometricPrecision; text-rendering:geometricPrecision; image-rendering:optimizeQuality; fill-rule:evenodd; clip-rule:evenodd" xmlns:xlink="http://www.w3.org/1999/xlink">
<g><path style="opacity:0.977" fill="#000000" d="M 2.5,11.5 C 17.1667,11.5 31.8333,11.5 46.5,11.5C 46.5,20.1667 46.5,28.8333 46.5,37.5C 31.8333,37.5 17.1667,37.5 2.5,37.5C 2.5,28.8333 2.5,20.1667 2.5,11.5 Z M 10.5,13.5 C 20.1667,13.5 29.8333,13.5 39.5,13.5C 39.5,20.8333 39.5,28.1667 39.5,35.5C 29.8333,35.5 20.1667,35.5 10.5,35.5C 10.5,28.1667 10.5,20.8333 10.5,13.5 Z M 5.5,21.5 C 6.69348,21.9704 7.36015,22.9704 7.5,24.5C 7.16667,25.5 6.83333,26.5 6.5,27.5C 5.53443,25.604 5.2011,23.604 5.5,21.5 Z"/></g>
<g><path style="opacity:0.594" fill="#000000" d="M 30.5,19.5 C 34.3491,19.0193 36.3491,20.686 36.5,24.5C 35.0695,24.5792 33.7362,24.2458 32.5,23.5C 30.1332,25.7038 27.6332,27.7038 25,29.5C 23.3745,28.7113 21.8745,27.7113 20.5,26.5C 18.6187,28.7337 16.2853,30.067 13.5,30.5C 14.598,25.5583 17.598,23.0583 22.5,23C 23.3333,23.8333 24.1667,24.6667 25,25.5C 27.0396,23.6298 28.8729,21.6298 30.5,19.5 Z"/></g>
</svg>
