<?xml version="1.0" encoding="UTF-8"?>
<!DOCTYPE svg PUBLIC "-//W3C//DTD SVG 1.1//EN" "http://www.w3.org/Graphics/SVG/1.1/DTD/svg11.dtd">
<svg xmlns="http://www.w3.org/2000/svg" version="1.1" width="512px" height="512px" style="shape-rendering:geometricPrecision; text-rendering:geometricPrecision; image-rendering:optimizeQuality; fill-rule:evenodd; clip-rule:evenodd" xmlns:xlink="http://www.w3.org/1999/xlink">
<g><path style="opacity:0.984" fill="#000000" d="M 206.5,47.5 C 238.835,47.3334 271.168,47.5 303.5,48C 314.06,54.1334 316.56,62.6334 311,73.5C 309.062,76.1059 306.562,77.9392 303.5,79C 271.167,79.6667 238.833,79.6667 206.5,79C 195.853,72.9151 193.353,64.4151 199,53.5C 201.114,50.8792 203.614,48.8792 206.5,47.5 Z"/></g>
<g><path style="opacity:0.964" fill="#000000" d="M 379.5,89.5 C 384.947,88.8256 389.947,89.9922 394.5,93C 409.333,107.833 424.167,122.667 439,137.5C 443.66,144.796 443.66,152.129 439,159.5C 432.083,165.069 424.583,165.903 416.5,162C 412.667,158.167 408.833,154.333 405,150.5C 402.65,152.683 400.483,155.016 398.5,157.5C 437.437,206.665 449.937,261.998 436,323.5C 413.852,398.315 364.685,444.148 288.5,461C 221.273,471.147 164.106,451.98 117,403.5C 74.1652,353.494 59.8319,296.161 74,231.5C 91.8207,168.345 131.321,124.845 192.5,101C 259.05,80.034 319.717,90.8673 374.5,133.5C 376.984,131.517 379.317,129.35 381.5,127C 376.254,122.425 371.754,117.258 368,111.5C 365.815,100.865 369.648,93.5318 379.5,89.5 Z M 243.5,123.5 C 308.941,122.126 358.108,149.459 391,205.5C 415.167,255.665 414.167,305.331 388,354.5C 357.481,403.19 313.315,428.857 255.5,431.5C 198.753,429.223 154.92,404.557 124,357.5C 94.401,304.706 94.0677,251.706 123,198.5C 151.169,154.327 191.335,129.327 243.5,123.5 Z"/></g>
<g><path style="opacity:0.963" fill="#000000" d="M 249.5,162.5 C 260.037,160.681 267.204,164.681 271,174.5C 271.333,201.5 271.667,228.5 272,255.5C 284.88,268.476 285.713,282.142 274.5,296.5C 263.696,305.607 252.03,306.774 239.5,300C 224.21,285.67 223.71,270.837 238,255.5C 238.333,228.5 238.667,201.5 239,174.5C 240.936,169.068 244.436,165.068 249.5,162.5 Z"/></g>
</svg>
