<?xml version="1.0" encoding="UTF-8"?>
<!DOCTYPE svg PUBLIC "-//W3C//DTD SVG 1.1//EN" "http://www.w3.org/Graphics/SVG/1.1/DTD/svg11.dtd">
<svg xmlns="http://www.w3.org/2000/svg" version="1.1" width="512px" height="512px" style="shape-rendering:geometricPrecision; text-rendering:geometricPrecision; image-rendering:optimizeQuality; fill-rule:evenodd; clip-rule:evenodd" xmlns:xlink="http://www.w3.org/1999/xlink">
<g><path style="opacity:0.989" fill="#d10000" d="M 511.5,364.5 C 511.5,368.833 511.5,373.167 511.5,377.5C 508.158,387.668 501.158,393.835 490.5,396C 333.833,396.667 177.167,396.667 20.5,396C 9.84226,393.835 2.84226,387.668 -0.5,377.5C -0.5,373.167 -0.5,368.833 -0.5,364.5C 0.95406,361.592 2.45406,358.592 4,355.5C 82.1667,277.333 160.333,199.167 238.5,121C 249.833,112.333 261.167,112.333 272.5,121C 350.667,199.167 428.833,277.333 507,355.5C 508.546,358.592 510.046,361.592 511.5,364.5 Z"/></g>
</svg>
