<?xml version="1.0" standalone="no"?>
<!DOCTYPE svg PUBLIC "-//W3C//DTD SVG 20010904//EN"
 "http://www.w3.org/TR/2001/REC-SVG-20010904/DTD/svg10.dtd">
<svg version="1.0" xmlns="http://www.w3.org/2000/svg"
 width="512.000000pt" height="512.000000pt" viewBox="0 0 512.000000 512.000000"
 preserveAspectRatio="xMidYMid meet">

<g transform="translate(0.000000,512.000000) scale(0.100000,-0.100000)"
fill="#000000" stroke="none">
<path d="M765 3939 c-76 -11 -206 -73 -267 -128 -58 -51 -115 -136 -148 -221
l-25 -65 0 -965 0 -965 25 -65 c33 -85 90 -170 148 -221 67 -58 192 -117 277
-129 94 -13 2196 -13 2290 0 84 12 208 70 276 130 59 50 116 136 148 220 20
55 25 89 30 228 l6 164 400 -287 c220 -158 418 -296 440 -306 27 -13 64 -19
116 -19 65 0 85 4 137 30 69 35 125 92 156 159 l21 46 0 1015 0 1015 -21 46
c-30 64 -88 125 -148 157 -45 24 -62 27 -146 27 -84 0 -100 -3 -140 -26 -25
-14 -218 -150 -430 -303 l-385 -278 -6 164 c-5 139 -10 173 -30 228 -61 163
-173 271 -344 333 l-60 22 -1130 1 c-621 1 -1157 -2 -1190 -7z m2359 -238 c66
-33 122 -91 155 -160 l26 -56 0 -925 0 -925 -26 -56 c-33 -69 -89 -127 -155
-160 l-49 -24 -1155 0 -1155 0 -49 24 c-66 33 -122 91 -155 160 l-26 56 0 925
0 925 27 57 c34 73 104 141 171 167 51 20 71 20 1197 18 l1145 -2 49 -24z
m1415 -117 c52 -37 51 -11 51 -1024 0 -1013 1 -987 -51 -1024 -57 -40 -59 -38
-554 317 l-464 332 0 375 0 375 462 332 c495 357 497 358 556 317z"/>
</g>
</svg>
