<?xml version="1.0" standalone="no"?>
<!DOCTYPE svg PUBLIC "-//W3C//DTD SVG 20010904//EN"
 "http://www.w3.org/TR/2001/REC-SVG-20010904/DTD/svg10.dtd">
<svg version="1.0" xmlns="http://www.w3.org/2000/svg"
 width="48.000000pt" height="48.000000pt" viewBox="0 0 48.000000 48.000000"
 preserveAspectRatio="xMidYMid meet">

<g transform="translate(0.000000,48.000000) scale(0.100000,-0.100000)"
fill="#ffd700" stroke="none">
<path d="M250 414 c-6 -14 -10 -28 -10 -32 0 -4 -11 -24 -25 -44 -23 -34 -25
-45 -25 -157 l0 -119 70 -13 c66 -11 73 -11 97 8 20 14 32 38 45 89 10 38 18
77 18 86 0 29 -29 48 -75 48 l-44 0 6 65 c4 45 2 69 -7 80 -19 22 -39 18 -50
-11z"/>
<path d="M72 278 c-16 -16 -16 -210 0 -226 16 -16 70 -16 86 0 8 8 12 50 12
125 l0 113 -43 0 c-24 0 -48 -5 -55 -12z"/>
</g>
</svg>
